<svg width="32.000000" height="32.000000" viewBox="0 0 32 32" fill="none" xmlns="http://www.w3.org/2000/svg" xmlns:xlink="http://www.w3.org/1999/xlink">
	<desc>
			Created with Pixso.
	</desc>
	<defs/>
	<rect width="32.000000" height="32.000000" fill="#FFFFFF" fill-opacity="0"/>
	<path d="M13.82 2.41L21.34 9.94L21.42 9.86C21.58 9.71 21.79 9.62 22.01 9.62C22.23 9.62 22.45 9.7 22.61 9.85L22.61 9.86L23.48 10.72C23.79 11.03 23.8 11.49 23.56 11.82L23.56 11.83L23.42 12.02L29.58 18.18C30.13 18.73 30.13 19.61 29.58 20.16L20.15 29.59C19.6 30.14 18.72 30.14 18.17 29.59L13.72 25.14C13.65 25.23 13.55 25.31 13.45 25.36C13.34 25.42 13.23 25.45 13.11 25.46C12.99 25.46 12.87 25.45 12.76 25.4C12.65 25.36 12.55 25.3 12.46 25.21L9.86 22.61C9.71 22.45 9.62 22.24 9.62 22.02C9.62 21.8 9.7 21.59 9.85 21.43L9.86 21.42L9.93 21.34L2.41 13.82C1.86 13.27 1.86 12.39 2.41 11.84L11.84 2.41C12.39 1.86 13.27 1.86 13.82 2.41L13.82 2.41ZM20.4 10.89L18.64 9.13C18.59 9.08 18.52 9.03 18.45 9C18.38 8.97 18.3 8.95 18.22 8.95C18.14 8.95 18.06 8.97 17.99 9C17.91 9.03 17.85 9.08 17.79 9.13L14.21 12.71C14.16 12.77 14.11 12.84 14.08 12.91C14.05 12.98 14.03 13.06 14.03 13.14C14.03 13.22 14.05 13.3 14.08 13.38C14.11 13.45 14.16 13.52 14.21 13.57L15.96 15.32L16.57 14.71L15.01 13.15L18.22 9.93L19.79 11.5L20.4 10.89ZM15.32 15.96L13.57 14.21C13.51 14.15 13.45 14.1 13.38 14.07C13.3 14.04 13.22 14.03 13.14 14.03C13.07 14.03 12.99 14.04 12.91 14.07C12.84 14.1 12.77 14.15 12.72 14.21L9.14 17.79L9.13 17.79L9.13 17.8C8.89 18.03 8.89 18.41 9.13 18.65L10.88 20.4L11.5 19.78L9.93 18.22L13.15 15.01L14.71 16.57L15.32 15.96ZM8.82 8.19L12.4 11.77C12.64 12.01 13.02 12.01 13.25 11.76L16.83 8.18C16.88 8.12 16.93 8.06 16.96 7.99C16.99 7.91 17.01 7.84 17.01 7.76L17.02 7.76C17.02 7.61 16.96 7.45 16.84 7.33L13.26 3.75C13.2 3.69 13.13 3.65 13.06 3.62C12.99 3.58 12.91 3.57 12.83 3.57C12.75 3.57 12.67 3.58 12.59 3.62C12.52 3.65 12.45 3.69 12.4 3.75L8.82 7.34C8.58 7.57 8.58 7.95 8.82 8.19ZM3.75 13.26L7.33 16.84C7.57 17.08 7.95 17.08 8.18 16.84L11.76 13.26C11.82 13.2 11.86 13.14 11.89 13.06C11.92 12.99 11.94 12.91 11.94 12.83L11.95 12.83C11.95 12.67 11.89 12.52 11.77 12.4L8.19 8.82C8.13 8.76 8.07 8.72 7.99 8.69C7.92 8.65 7.84 8.64 7.76 8.64C7.68 8.64 7.6 8.65 7.53 8.69C7.46 8.72 7.39 8.76 7.34 8.82L3.75 12.41C3.51 12.64 3.51 13.02 3.75 13.26ZM10.68 22.01L13.04 24.38L22.68 11.34L22.02 10.68L10.68 22.01Z" fill="#111111" fill-opacity="1.000000" fill-rule="nonzero"/>
	<path d="M13.82 2.41L21.34 9.94L21.42 9.86C21.58 9.71 21.79 9.62 22.01 9.62C22.23 9.62 22.45 9.7 22.61 9.85L22.61 9.86L23.48 10.72C23.79 11.03 23.8 11.49 23.56 11.82L23.56 11.83L23.42 12.02L29.58 18.18C30.13 18.73 30.13 19.61 29.58 20.16L20.15 29.59C19.6 30.14 18.72 30.14 18.17 29.59L13.72 25.14C13.65 25.23 13.55 25.31 13.45 25.36C13.34 25.42 13.23 25.45 13.11 25.46C12.99 25.46 12.87 25.45 12.76 25.4C12.65 25.36 12.55 25.3 12.46 25.21L9.86 22.61C9.71 22.45 9.62 22.24 9.62 22.02C9.62 21.8 9.7 21.59 9.85 21.43L9.86 21.42L9.93 21.34L2.41 13.82C1.86 13.27 1.86 12.39 2.41 11.84L11.84 2.41C12.39 1.86 13.27 1.86 13.82 2.41L13.82 2.41ZM20.4 10.89L18.64 9.13C18.59 9.08 18.52 9.03 18.45 9C18.38 8.97 18.3 8.95 18.22 8.95C18.14 8.95 18.06 8.97 17.99 9C17.91 9.03 17.85 9.08 17.79 9.13L14.21 12.71C14.16 12.77 14.11 12.84 14.08 12.91C14.05 12.98 14.03 13.06 14.03 13.14C14.03 13.22 14.05 13.3 14.08 13.38C14.11 13.45 14.16 13.52 14.21 13.57L15.96 15.32L16.57 14.71L15.01 13.15L18.22 9.93L19.79 11.5L20.4 10.89ZM15.32 15.96L13.57 14.21C13.51 14.15 13.45 14.1 13.38 14.07C13.3 14.04 13.22 14.03 13.14 14.03C13.07 14.03 12.99 14.04 12.91 14.07C12.84 14.1 12.77 14.15 12.72 14.21L9.14 17.79L9.13 17.79L9.13 17.8C8.89 18.03 8.89 18.41 9.13 18.65L10.88 20.4L11.5 19.78L9.93 18.22L13.15 15.01L14.71 16.57L15.32 15.96ZM8.82 8.19L12.4 11.77C12.64 12.01 13.02 12.01 13.25 11.76L16.83 8.18C16.88 8.12 16.93 8.06 16.96 7.99C16.99 7.91 17.01 7.84 17.01 7.76L17.02 7.76C17.02 7.61 16.96 7.45 16.84 7.33L13.26 3.75C13.2 3.69 13.13 3.65 13.06 3.62C12.99 3.58 12.91 3.57 12.83 3.57C12.75 3.57 12.67 3.58 12.59 3.62C12.52 3.65 12.45 3.69 12.4 3.75L8.82 7.34C8.58 7.57 8.58 7.95 8.82 8.19ZM3.75 13.26L7.33 16.84C7.57 17.08 7.95 17.08 8.18 16.84L11.76 13.26C11.82 13.2 11.86 13.14 11.89 13.06C11.92 12.99 11.94 12.91 11.94 12.83L11.95 12.83C11.95 12.67 11.89 12.52 11.77 12.4L8.19 8.82C8.13 8.76 8.07 8.72 7.99 8.69C7.92 8.65 7.84 8.64 7.76 8.64C7.68 8.64 7.6 8.65 7.53 8.69C7.46 8.72 7.39 8.76 7.34 8.82L3.75 12.41C3.51 12.64 3.51 13.02 3.75 13.26ZM10.68 22.01L13.04 24.38L22.68 11.34L22.02 10.68L10.68 22.01Z" fill="#FD9222" fill-opacity="1.000000" fill-rule="nonzero"/>
</svg>
