<svg width="32.000000" height="32.000000" viewBox="0 0 32 32" fill="none" xmlns="http://www.w3.org/2000/svg" xmlns:xlink="http://www.w3.org/1999/xlink">
	<desc>
			Created with Pixso.
	</desc>
	<defs>
		<clipPath id="clip609_1442">
			<rect width="32.000000" height="32.000000" fill="white" fill-opacity="0"/>
		</clipPath>
	</defs>
	<rect width="32.000000" height="32.000000" fill="#FFFFFF" fill-opacity="0"/>
	<g clip-path="url(#clip609_1442)">
		<path d="M16 2.66C8.66 2.66 2.66 8.66 2.66 16C2.66 23.33 8.66 29.33 16 29.33C23.33 29.33 29.33 23.33 29.33 16C29.33 8.66 23.33 2.66 16 2.66ZM16 26.66C10.13 26.66 5.33 21.86 5.33 16C5.33 10.13 10.13 5.33 16 5.33C21.86 5.33 26.66 10.13 26.66 16C26.66 21.86 21.86 26.66 16 26.66Z" fill="#FD9222" fill-opacity="1.000000" fill-rule="nonzero"/>
		<path d="M17.73 14.66L14.26 14.66C13.6 14.66 13.06 14.13 13.06 13.46C13.06 12.79 13.6 12.26 14.26 12.26L19.2 12.26C20 12.26 20.53 11.73 20.53 10.93C20.53 10.13 20 9.59 19.2 9.59L17.33 9.59L17.33 8.4C17.33 7.59 16.79 7.06 16 7.06C15.2 7.06 14.66 7.59 14.66 8.4L14.66 9.59L14.26 9.59C12.13 9.59 10.4 11.33 10.4 13.46C10.4 15.6 12.13 17.33 14.26 17.33L17.6 17.33C18.26 17.33 18.79 17.86 18.79 18.53C18.79 19.2 18.26 19.73 17.6 19.73L12.66 19.73C11.86 19.73 11.33 20.26 11.33 21.06C11.33 21.86 11.86 22.4 12.66 22.4L14.66 22.4L14.66 23.6C14.66 24.4 15.2 24.93 16 24.93C16.79 24.93 17.33 24.4 17.33 23.6L17.33 22.4L17.73 22.4C19.86 22.4 21.6 20.66 21.6 18.53C21.6 16.4 19.86 14.66 17.73 14.66Z" fill="#FD9222" fill-opacity="1.000000" fill-rule="nonzero"/>
	</g>
</svg>
