<svg width="38.000061" height="38.000000" viewBox="0 0 38.0001 38" fill="none" xmlns="http://www.w3.org/2000/svg" xmlns:xlink="http://www.w3.org/1999/xlink">
	<desc>
			Created with Pixso.
	</desc>
	<defs/>
	<ellipse id="Ellipse 1" rx="19.000000" ry="19.000029" transform="matrix(6.12323e-17 1 1 -6.12323e-17 19 19)" fill="#FFFFFF" fill-opacity="1.000000"/>
	<path id="Vector" d="M19.65 20.28C19.56 20.36 19.46 20.43 19.35 20.48C19.24 20.53 19.12 20.55 19 20.55C18.87 20.55 18.75 20.53 18.64 20.48C18.53 20.43 18.43 20.36 18.34 20.28L14.15 16.07C14.06 15.99 13.96 15.92 13.85 15.87C13.74 15.82 13.62 15.8 13.5 15.8C13.37 15.8 13.25 15.82 13.14 15.87C13.03 15.92 12.93 15.99 12.84 16.07C12.67 16.24 12.58 16.48 12.58 16.72C12.58 16.96 12.67 17.19 12.84 17.36L17.05 21.57C17.57 22.09 18.27 22.38 19 22.38C19.72 22.38 20.42 22.09 20.94 21.57L25.15 17.36C25.32 17.19 25.41 16.96 25.41 16.72C25.41 16.6 25.39 16.48 25.34 16.37C25.3 16.26 25.23 16.16 25.15 16.07C25.06 15.99 24.96 15.92 24.85 15.87C24.74 15.82 24.62 15.8 24.5 15.8C24.37 15.8 24.25 15.82 24.14 15.87C24.03 15.92 23.93 15.99 23.84 16.07L19.65 20.28Z" fill="#FD9222" fill-opacity="1.000000" fill-rule="nonzero"/>
</svg>
