<svg xmlns="http://www.w3.org/2000/svg" aria-hidden="true" style="position:absolute;width:0;height:0;overflow:hidden">
  <defs>
    <symbol id="icon-x" viewBox="0 0 32 32">
      <path stroke-linecap="round" stroke-linejoin="round" stroke-width="2.286" d="M24 8 8 24M8 8l16 16"/>
    </symbol>
    <symbol id="icon-chocolate" viewBox="0 0 32 32">
      <path d="M14.72 2.64 3.933 20.067l12.84 8.067 8.88-14.08-2.013-3.28-.053-3.307-8.227-5.493-.64.667z"/>
      <path stroke-linecap="round" stroke-linejoin="round" stroke-width="2.667" d="m24.893 8.187-9.627-6.013L3.533 21.427l14.187 8.867 9.453-15.507c-3.04-1.907-4.24-3.387-2.28-6.6zm-3.266 15.68L7.44 15.014m3.92-6.427 14.173 8.867m-14.906 8.399L22.36 6.613"/>
    </symbol>
    <symbol id="icon-fb" viewBox="0 0 32 32">
      <path stroke-linejoin="round" stroke-width="2" d="M20 2.667c-1.773 0-3.467.693-4.72 1.947s-1.947 2.947-1.947 4.72v4h-4v5.333h4v10.667h5.333V18.667h4l1.333-5.333h-5.333v-4A1.32 1.32 0 0 1 20 8h4V2.667h-4z"/>
    </symbol>
    <symbol id="icon-ig" viewBox="0 0 32 32">
      <path stroke-linejoin="round" stroke-width="2" d="M22.667 2.667a6.66 6.66 0 0 1 6.667 6.667v13.333a6.67 6.67 0 0 1-6.667 6.667H9.334a6.661 6.661 0 0 1-6.667-6.667V9.334a6.652 6.652 0 0 1 6.667-6.667h13.333z"/>
      <path stroke-linejoin="round" stroke-width="2" d="M20.787 18.387a5.277 5.277 0 0 1-2.333 2.307c-1 .507-2.147.68-3.253.507s-2.133-.693-2.92-1.493c-.8-.787-1.32-1.813-1.493-2.92s0-2.253.507-3.253a5.272 5.272 0 0 1 2.307-2.333 5.195 5.195 0 0 1 3.227-.533 5.365 5.365 0 0 1 3 1.493 5.365 5.365 0 0 1 1.493 3 5.202 5.202 0 0 1-.533 3.227z"/>
      <path stroke-linecap="round" stroke-linejoin="round" stroke-width="2" d="M23.333 8.667h.013"/>
    </symbol>
    <symbol id="icon-mail" viewBox="0 0 32 32">
      <path stroke-linejoin="round" stroke-width="2.667" d="M26.667 5.333c1.467 0 2.667 1.2 2.667 2.667v16c0 1.467-1.2 2.667-2.667 2.667H5.334A2.675 2.675 0 0 1 2.667 24V8c0-1.467 1.2-2.667 2.667-2.667h21.333z"/>
      <path stroke-linecap="round" stroke-linejoin="round" stroke-width="2.667" d="M29.333 8 16 17.333 2.667 8"/>
    </symbol>
    <symbol id="icon-phone" viewBox="0 0 32 32">
      <path stroke-linejoin="round" stroke-width="2.667" d="M29.333 26.56a2.737 2.737 0 0 1-.867 1.974c-.28.253-.6.44-.947.56-.36.12-.733.16-1.093.133a26.491 26.491 0 0 1-11.507-4.093 26.02 26.02 0 0 1-8-8 26.453 26.453 0 0 1-4.107-11.56 2.737 2.737 0 0 1 .133-1.093c.12-.36.307-.68.56-.947a2.51 2.51 0 0 1 .893-.64c.333-.16.707-.227 1.08-.227h4c.64-.013 1.267.213 1.76.64s.813 1 .907 1.653c.16 1.28.48 2.533.933 3.747.173.467.213.987.107 1.493-.107.493-.36.947-.707 1.32l-1.693 1.693a21.333 21.333 0 0 0 8 8l1.693-1.693c.36-.36.813-.613 1.307-.72a2.636 2.636 0 0 1 1.507.12c1.2.44 2.453.76 3.747.933a2.63 2.63 0 0 1 1.653.907c.427.507.653 1.133.64 1.8v4z"/>
    </symbol>
    <symbol id="icon-user" viewBox="0 0 32 32">
      <path stroke-linecap="round" stroke-linejoin="round" stroke-width="2.667" d="M26.667 28v-2.667c0-1.427-.573-2.773-1.573-3.773S22.747 20 21.334 20H10.667c-1.427 0-2.773.56-3.773 1.56s-1.56 2.347-1.56 3.773V28"/>
      <path stroke-linejoin="round" stroke-width="2.667" d="M16 14.667a5.34 5.34 0 0 1-5.333-5.333A5.332 5.332 0 0 1 16 4.001a5.34 5.34 0 0 1 5.333 5.333c0 2.933-2.4 5.333-5.333 5.333z"/>
    </symbol>
    <symbol id="icon-twitter" viewBox="0 0 32 32">
      <path stroke-linejoin="round" stroke-width="2" d="M26.48 6.04c-.813-.933-1.88-1.587-3.067-1.88s-2.44-.227-3.573.213A5.938 5.938 0 0 0 17.027 6.6 5.867 5.867 0 0 0 16 10.04v1.333c-2.347.053-4.667-.467-6.76-1.52s-4.56-3.56-5.907-5.48c0 0-4.667 12.96 7.333 18.293a15.7 15.7 0 0 1-9.333 2.667C13.333 32 28 25.333 28 10a7.506 7.506 0 0 0-.107-1.107A10.347 10.347 0 0 0 30.666 4a14.87 14.87 0 0 1-4.187 2.04z"/>
    </symbol>
  </defs>
</svg>
