<svg xmlns="http://www.w3.org/2000/svg" aria-hidden="true" style="position:absolute;width:0;height:0;overflow:hidden">
  <defs>
    <symbol id="icon-feature-chocolate" viewBox="0 0 32 32">
      <path fill="#111" d="m13.82 2.41 7.52 7.53.08-.08a.867.867 0 0 1 1.19-.01v.01l.87.86c.31.31.32.77.08 1.1v.01l-.14.19 6.16 6.16c.55.55.55 1.43 0 1.98l-9.43 9.43c-.55.55-1.43.55-1.98 0l-4.45-4.45c-.07.09-.17.17-.27.22-.11.06-.22.09-.34.1-.12 0-.24-.01-.35-.06a.804.804 0 0 1-.3-.19l-2.6-2.6a.858.858 0 0 1-.01-1.18l.01-.01.07-.08-7.52-7.52c-.55-.55-.55-1.43 0-1.98l9.43-9.43c.55-.55 1.43-.55 1.98 0zm6.58 8.48-1.76-1.76a.593.593 0 0 0-.42-.18c-.08 0-.16.02-.23.05-.08.03-.14.08-.2.13l-3.58 3.58c-.05.06-.1.13-.13.2s-.05.15-.05.23c0 .08.02.16.05.24.03.07.08.14.13.19l1.75 1.75.61-.61-1.56-1.56 3.21-3.22 1.57 1.57.61-.61zm-5.08 5.07-1.75-1.75a.622.622 0 0 0-.19-.14.672.672 0 0 0-.24-.04c-.07 0-.15.01-.23.04-.07.03-.14.08-.19.14l-3.58 3.58h-.01v.01c-.24.23-.24.61 0 .85l1.75 1.75.62-.62-1.57-1.56 3.22-3.21 1.56 1.56.61-.61zm-6.5-7.77 3.58 3.58c.24.24.62.24.85-.01l3.58-3.58c.05-.06.1-.12.13-.19.03-.08.05-.15.05-.23h.01c0-.15-.06-.31-.18-.43l-3.58-3.58a.625.625 0 0 0-.2-.13c-.07-.04-.15-.05-.23-.05s-.16.01-.24.05c-.07.03-.14.07-.19.13L8.82 7.34c-.24.23-.24.61 0 .85zm-5.07 5.07 3.58 3.58c.24.24.62.24.85 0l3.58-3.58c.06-.06.1-.12.13-.2.03-.07.05-.15.05-.23h.01c0-.16-.06-.31-.18-.43L8.19 8.82a.533.533 0 0 0-.2-.13c-.07-.04-.15-.05-.23-.05s-.16.01-.23.05c-.07.03-.14.07-.19.13l-3.59 3.59c-.24.23-.24.61 0 .85zm6.93 8.75 2.36 2.37 9.64-13.04-.66-.66-11.34 11.33z" style="fill:var(--color1, #111)"/>
      <path fill="#fd9222" d="m13.82 2.41 7.52 7.53.08-.08a.867.867 0 0 1 1.19-.01v.01l.87.86c.31.31.32.77.08 1.1v.01l-.14.19 6.16 6.16c.55.55.55 1.43 0 1.98l-9.43 9.43c-.55.55-1.43.55-1.98 0l-4.45-4.45c-.07.09-.17.17-.27.22-.11.06-.22.09-.34.1-.12 0-.24-.01-.35-.06a.804.804 0 0 1-.3-.19l-2.6-2.6a.858.858 0 0 1-.01-1.18l.01-.01.07-.08-7.52-7.52c-.55-.55-.55-1.43 0-1.98l9.43-9.43c.55-.55 1.43-.55 1.98 0zm6.58 8.48-1.76-1.76a.593.593 0 0 0-.42-.18c-.08 0-.16.02-.23.05-.08.03-.14.08-.2.13l-3.58 3.58c-.05.06-.1.13-.13.2s-.05.15-.05.23c0 .08.02.16.05.24.03.07.08.14.13.19l1.75 1.75.61-.61-1.56-1.56 3.21-3.22 1.57 1.57.61-.61zm-5.08 5.07-1.75-1.75a.622.622 0 0 0-.19-.14.672.672 0 0 0-.24-.04c-.07 0-.15.01-.23.04-.07.03-.14.08-.19.14l-3.58 3.58h-.01v.01c-.24.23-.24.61 0 .85l1.75 1.75.62-.62-1.57-1.56 3.22-3.21 1.56 1.56.61-.61zm-6.5-7.77 3.58 3.58c.24.24.62.24.85-.01l3.58-3.58c.05-.06.1-.12.13-.19.03-.08.05-.15.05-.23h.01c0-.15-.06-.31-.18-.43l-3.58-3.58a.625.625 0 0 0-.2-.13c-.07-.04-.15-.05-.23-.05s-.16.01-.24.05c-.07.03-.14.07-.19.13L8.82 7.34c-.24.23-.24.61 0 .85zm-5.07 5.07 3.58 3.58c.24.24.62.24.85 0l3.58-3.58c.06-.06.1-.12.13-.2.03-.07.05-.15.05-.23h.01c0-.16-.06-.31-.18-.43L8.19 8.82a.533.533 0 0 0-.2-.13c-.07-.04-.15-.05-.23-.05s-.16.01-.23.05c-.07.03-.14.07-.19.13l-3.59 3.59c-.24.23-.24.61 0 .85zm6.93 8.75 2.36 2.37 9.64-13.04-.66-.66-11.34 11.33z" style="fill:var(--color2, #fd9222)"/>
    </symbol>
    <symbol id="icon-feature-coin" viewBox="0 0 32 32">
      <path fill="#fd9222" d="M16 2.66c-7.34 0-13.34 6-13.34 13.34 0 7.33 6 13.33 13.34 13.33 7.33 0 13.33-6 13.33-13.33 0-7.34-6-13.34-13.33-13.34zm0 24c-5.87 0-10.67-4.8-10.67-10.66 0-5.87 4.8-10.67 10.67-10.67 5.86 0 10.66 4.8 10.66 10.67 0 5.86-4.8 10.66-10.66 10.66z" style="fill:var(--color2, #fd9222)"/>
      <path fill="#fd9222" d="M17.73 14.66h-3.47c-.66 0-1.2-.53-1.2-1.2s.54-1.2 1.2-1.2h4.94c.8 0 1.33-.53 1.33-1.33S20 9.59 19.2 9.59h-1.87V8.4c0-.81-.54-1.34-1.33-1.34-.8 0-1.34.53-1.34 1.34v1.19h-.4a3.87 3.87 0 0 0 0 7.74h3.34c.66 0 1.19.53 1.19 1.2s-.53 1.2-1.19 1.2h-4.94c-.8 0-1.33.53-1.33 1.33s.53 1.34 1.33 1.34h2v1.2c0 .8.54 1.33 1.34 1.33.79 0 1.33-.53 1.33-1.33v-1.2h.4c2.13 0 3.87-1.74 3.87-3.87s-1.74-3.87-3.87-3.87z" style="fill:var(--color2, #fd9222)"/>
    </symbol>
    <symbol id="icon-feature-spoon" viewBox="0 0 32 32">
      <path fill="#fd9222" d="M15.45 14.1a5.105 5.105 0 0 1-1.18-3.28c0-4.32 5.18-8.64 10.36-8.64 2.86 0 5.18 2.32 5.18 5.18 0 5.18-4.31 10.36-8.64 10.36a5.15 5.15 0 0 1-3.28-1.17L5.13 29.31c-.68.67-1.77.67-2.45 0-.67-.68-.67-1.77 0-2.45L15.45 14.1z" style="fill:var(--color2, #fd9222)"/>
    </symbol>
    <symbol id="icon-hero-scroll-arr" viewBox="0 0 32 32">
      <path fill="#fff" d="M16 32c8.837 0 16-7.163 16-16S24.837 0 16 0 0 7.163 0 16s7.163 16 16 16z" style="fill:var(--color1, #fff)"/>
      <path fill="#fd9222" d="M16.547 17.078c-.076.067-.16.126-.253.168s-.194.059-.295.059c-.109 0-.211-.017-.303-.059s-.177-.101-.253-.168l-3.528-3.545c-.076-.067-.16-.126-.253-.168s-.194-.059-.295-.059c-.109 0-.211.017-.303.059s-.177.101-.253.168c-.143.143-.219.345-.219.547s.076.396.219.539l3.545 3.545a2.32 2.32 0 0 0 1.642.682c.606 0 1.196-.244 1.634-.682l3.545-3.545a.758.758 0 0 0 .219-.539.714.714 0 0 0-.059-.295.815.815 0 0 0-.16-.253c-.076-.067-.16-.126-.253-.168s-.194-.059-.295-.059c-.109 0-.211.017-.303.059s-.177.101-.253.168l-3.528 3.545z" style="fill:var(--color2, #fd9222)"/>
    </symbol>
    <symbol id="icon-modal-close" viewBox="0 0 24 24">
      <path stroke-linecap="round" stroke-linejoin="round" stroke-width="1.714" d="M18 6 6 18M6 6l12 12"/>
    </symbol>
    <symbol id="icon-modal-mail" viewBox="0 0 24 24">
      <path stroke-linejoin="round" stroke-width="2" d="M20 4c1.1 0 2 .9 2 2v12c0 1.1-.9 2-2 2H4c-1.1 0-2-.9-2-2V6c0-1.1.9-2 2-2h16z"/>
      <path stroke-linecap="round" stroke-linejoin="round" stroke-width="2" d="m22 6-10 7L2 6"/>
    </symbol>
    <symbol id="icon-modal-phone" viewBox="0 0 24 24">
      <path stroke-linejoin="round" stroke-width="2" d="M22 19.92a2.049 2.049 0 0 1-.65 1.48c-.21.19-.45.33-.71.42-.27.09-.55.12-.82.1a19.87 19.87 0 0 1-8.63-3.07 19.518 19.518 0 0 1-6-6 19.836 19.836 0 0 1-3.08-8.67c-.02-.28.01-.56.1-.82.09-.27.23-.51.42-.71.19-.21.41-.37.67-.48.25-.12.53-.17.81-.17h3c.48-.01.95.16 1.32.48s.61.75.68 1.24c.12.96.36 1.9.7 2.81.13.35.16.74.08 1.12-.08.37-.27.71-.53.99L8.09 9.91a16 16 0 0 0 6 6l1.27-1.27c.27-.27.61-.46.98-.54.38-.08.77-.05 1.13.09.9.33 1.84.57 2.81.7.48.06.92.31 1.24.68.32.38.49.85.48 1.35v3z"/>
    </symbol>
    <symbol id="icon-modal-user" viewBox="0 0 24 24">
      <path stroke-linecap="round" stroke-linejoin="round" stroke-width="2" d="M20 21v-2c0-1.07-.43-2.08-1.18-2.83S17.06 15 16 15H8c-1.07 0-2.08.42-2.83 1.17S4 17.93 4 19v2"/>
      <path stroke-linejoin="round" stroke-width="2" d="M12 11a3.999 3.999 0 1 1-.002-8.002A3.999 3.999 0 0 1 12 11z"/>
    </symbol>
    <symbol id="icon-soc-fb" viewBox="0 0 24 24">
      <path stroke-linejoin="round" stroke-width="1.5" d="M15 2c-1.33 0-2.6.52-3.54 1.46S10 5.67 10 7v3H7v4h3v8h4v-8h3l1-4h-4V7a.99.99 0 0 1 1-1h3V2h-3z"/>
    </symbol>
    <symbol id="icon-soc-ig" viewBox="0 0 24 24">
      <path stroke-linejoin="round" stroke-width="1.5" d="M17 2c2.76 0 5 2.23 5 5v10c0 2.76-2.24 5-5 5H7c-2.77 0-5-2.24-5-5V7c0-2.77 2.23-5 5-5h10z"/>
      <path stroke-linejoin="round" stroke-width="1.5" d="M15.59 13.79c-.39.75-1 1.36-1.75 1.73-.75.38-1.61.51-2.44.38s-1.6-.52-2.19-1.12c-.6-.59-.99-1.36-1.12-2.19s0-1.69.38-2.44c.37-.75.98-1.36 1.73-1.75a3.9 3.9 0 0 1 2.42-.4c.85.12 1.64.52 2.25 1.12.6.61 1 1.4 1.12 2.25a3.9 3.9 0 0 1-.4 2.42z"/>
      <path stroke-linecap="round" stroke-linejoin="round" stroke-width="1.5" d="M17.5 6.5h.01"/>
    </symbol>
    <symbol id="icon-soc-twitter" viewBox="0 0 24 24">
      <path stroke-linejoin="round" stroke-width="1.5" d="M19.86 4.53c-.61-.7-1.41-1.19-2.3-1.41s-1.83-.17-2.68.16c-.86.33-1.6.91-2.11 1.67-.52.76-.79 1.66-.77 2.58v1c-1.76.04-3.5-.35-5.07-1.14S3.51 4.72 2.5 3.28C2.5 3.28-1 13 8 17a11.772 11.772 0 0 1-7 2c9 5 20 0 20-11.5-.01-.28-.03-.56-.08-.83A7.761 7.761 0 0 0 23 3c-.96.67-2.02 1.19-3.14 1.53z"/>
    </symbol>
  </defs>
</svg>